#!OML:ASF H:\Dans Jumps\Project 1\Capture day 1\Session 1\subject.ASF
:FULLY-SPECIFIED
:DEGREES
521
root 0.709458 17.6642 2.90732 7.71038 -0.364049 -1.35303
lowerback -0.383351 0.213249 -0.135369
upperback 2.88147 0.240402 1.71637
thorax 3.16623 0.0914299 1.84818
lowerneck -13.0995 -0.356218 -2.13324
upperneck 26.5693 -0.0921932 0.431693
head 10.6963 -0.201974 0.508262
rclavicle 9.93923e-017 1.19271e-015
rhumerus -17.6697 -11.4863 -84.8046
rradius 26.4731
rwrist 30.5787
rhand -21.4798 -26.4562
rfingers 7.12502
rthumb 4.91112 -56.3793
lclavicle 9.93923e-017 1.19271e-015
lhumerus -19.6596 1.70395 87.0307
lradius 18.8414
lwrist 4.25795
lhand -26.7991 -6.17455
lfingers 7.12502
lthumb -0.226071 23.8051
rfemur -16.5985 -1.89478 20.4172
rtibia 25.0469
rfoot -14.4602 -1.83983
rtoes 13.1451
lfemur -16.0387 5.73938 -18.3542
ltibia 22.1276
lfoot -11.0153 4.12038
ltoes -3.89949
522
root 0.70808 17.6646 2.9174 7.67823 -0.325715 -1.33766
lowerback -0.43122 0.213404 -0.150379
upperback 2.87306 0.240571 1.72028
thorax 3.18451 0.0910161 1.86088
lowerneck -13.131 -0.374443 -2.15418
upperneck 26.4239 -0.11842 0.453782
head 10.649 -0.212363 0.515945
rclavicle -7.55382e-015 -1.03368e-014
rhumerus -17.6239 -11.7397 -84.7662
rradius 26.4024
rwrist 30.703
rhand -21.4621 -26.4295
rfingers 7.12502
rthumb 4.92816 -56.3522
lclavicle -7.55382e-015 -1.03368e-014
lhumerus -19.6456 1.51341 87.1382
lradius 18.8654
lwrist 4.2821
lhand -26.7504 -6.15016
lfingers 7.12502
lthumb -0.178975 23.8295
rfemur -16.4987 -1.91522 20.4052
rtibia 25.0087
rfoot -14.486 -1.86557
rtoes 13.1135
lfemur -15.9339 5.7191 -18.358
ltibia 22.0611
lfoot -11.0298 4.10662
ltoes -3.91925
523
root 0.706659 17.6649 2.92746 7.64177 -0.284333 -1.33512
lowerback -0.473801 0.213337 -0.153277
upperback 2.86352 0.24013 1.7285
thorax 3.19869 0.090579 1.87117
lowerneck -13.151 -0.392629 -2.17786
upperneck 26.2695 -0.144358 0.476594
head 10.5961 -0.222758 0.52435
rclavicle -2.38542e-015 0
rhumerus -17.6004 -11.9843 -84.7209
rradius 26.3361
rwrist 30.8131
rhand -21.4505 -26.3989
rfingers 7.12502
rthumb 4.93935 -56.3213
lclavicle -2.38542e-015 0
lhumerus -19.637 1.34807 87.2418
lradius 18.8817
lwrist 4.27266
lhand -26.6997 -6.12193
lfingers 7.12502
lthumb -0.130055 23.8578
rfemur -16.3913 -1.93091 20.4078
rtibia 24.9651
rfoot -14.5089 -1.89719
rtoes 13.0805
lfemur -15.8313 5.6955 -18.3461
ltibia 22.0063
lfoot -11.0476 4.09657
ltoes -3.94028
524
root 0.705293 17.6651 2.93745 7.60008 -0.237396 -1.34381
lowerback -0.507366 0.212239 -0.144901
upperback 2.8533 0.238042 1.74038
thorax 3.20715 0.0895975 1.87878
lowerneck -13.164 -0.411354 -2.20231
upperneck 26.1079 -0.171337 0.500649
head 10.5395 -0.233526 0.533166
rclavicle 1.49089e-015 5.96354e-015
rhumerus -17.601 -12.2075 -84.6705
rradius 26.2827
rwrist 30.9016
rhand -21.4405 -26.3721
rfingers 7.12502
rthumb 4.94906 -56.2943
lclavicle 1.49089e-015 5.96354e-015
lhumerus -19.6292 1.20448 87.3424
lradius 18.8853
lwrist 4.23824
lhand -26.6449 -6.06486
lfingers 7.12502
lthumb -0.0771656 23.9149
rfemur -16.2752 -1.94631 20.4228
rtibia 24.9169
rfoot -14.5303 -1.93185
rtoes 13.054
lfemur -15.7303 5.66793 -18.3204
ltibia 21.9635
lfoot -11.07 4.08706
ltoes -3.95343
525
root 0.703953 17.6652 2.94728 7.56551 -0.192613 -1.35815
lowerback -0.547674 0.210349 -0.130432
upperback 2.83947 0.234712 1.75337
thorax 3.21575 0.088157 1.88409
lowerneck -13.1676 -0.429398 -2.23333
upperneck 25.941 -0.198257 0.533229
head 10.4792 -0.243898 0.546119
rclavicle -3.27995e-015 -1.35174e-014
rhumerus -17.6148 -12.3956 -84.6222
rradius 26.2304
rwrist 30.9598
rhand -21.434 -26.3734
rfingers 7.12502
rthumb 4.95528 -56.2955
lclavicle -3.27995e-015 -1.35174e-014
lhumerus -19.6206 1.08891 87.4356
lradius 18.881
lwrist 4.18257
lhand -26.5989 -6.00376
lfingers 7.12502
lthumb -0.0327181 23.976
rfemur -16.1675 -1.96165 20.4438
rtibia 24.8667
rfoot -14.5479 -1.96147
rtoes 13.0377
lfemur -15.6424 5.64306 -18.2894
ltibia 21.9301
lfoot -11.0954 4.0772
ltoes -3.95571
526
root 0.70276 17.6653 2.95714 7.53137 -0.14908 -1.37385
lowerback -0.586636 0.209159 -0.112683
upperback 2.8228 0.232296 1.7658
thorax 3.22064 0.0872986 1.88699
lowerneck -13.1624 -0.446847 -2.26632
upperneck 25.7681 -0.224692 0.568344
head 10.4152 -0.25392 0.56033
rclavicle -8.94531e-016 3.97569e-015
rhumerus -17.6451 -12.5758 -84.569
rradius 26.1742
rwrist 31.0184
rhand -21.4339 -26.3688
rfingers 7.12502
rthumb 4.95538 -56.2908
lclavicle -8.94531e-016 3.97569e-015
lhumerus -19.6119 0.993008 87.5241
lradius 18.8633
lwrist 4.11231
lhand -26.563 -5.95004
lfingers 7.12502
lthumb 0.00194014 24.0297
rfemur -16.0614 -1.97933 20.4656
rtibia 24.8172
rfoot -14.5634 -1.98628
rtoes 13.0285
lfemur -15.5578 5.61954 -18.2575
ltibia 21.9026
lfoot -11.1232 4.0657
ltoes -3.94602
527
root 0.701698 17.6654 2.96716 7.49823 -0.106932 -1.38747
lowerback -0.62779 0.208407 -0.0947018
upperback 2.80574 0.230505 1.77553
thorax 3.22634 0.0867939 1.88699
lowerneck -13.1615 -0.461907 -2.29571
upperneck 25.5962 -0.248678 0.604403
head 10.3526 -0.262383 0.574548
rclavicle 3.47873e-015 6.36111e-015
rhumerus -17.6912 -12.7414 -84.5143
rradius 26.1228
rwrist 31.0738
rhand -21.4403 -26.3557
rfingers 7.12502
rthumb 4.94923 -56.2779
lclavicle 3.47873e-015 6.36111e-015
lhumerus -19.6026 0.920101 87.6052
lradius 18.8374
lwrist 4.02622
lhand -26.53 -5.90466
lfingers 7.12502
lthumb 0.0338999 24.0751
rfemur -15.9578 -2.00001 20.4842
rtibia 24.7708
rfoot -14.579 -2.0053
rtoes 13.026
lfemur -15.4741 5.59966 -18.2289
ltibia 21.876
lfoot -11.153 4.04978
ltoes -3.92455
528
root 0.700796 17.6655 2.97741 7.46856 -0.064718 -1.39681
lowerback -0.67493 0.207134 -0.0783193
upperback 2.78807 0.228086 1.78197
thorax 3.23482 0.0859698 1.88453
lowerneck -13.167 -0.473837 -2.3168
upperneck 25.4257 -0.269078 0.63696
head 10.2918 -0.26884 0.58654
rclavicle 1.49089e-015 -1.98785e-015
rhumerus -17.7501 -12.8923 -84.459
rradius 26.0731
rwrist 31.1335
rhand -21.4475 -26.3399
rfingers 7.12502
rthumb 4.94228 -56.2623
lclavicle 1.49089e-015 -1.98785e-015
lhumerus -19.5923 0.865394 87.6798
lradius 18.8024
lwrist 3.93123
lhand -26.5078 -5.85998
lfingers 7.12502
lthumb 0.0553133 24.1198
rfemur -15.8595 -2.02621 20.4975
rtibia 24.7283
rfoot -14.5966 -2.01936
rtoes 13.0152
lfemur -15.3916 5.58319 -18.2064
ltibia 21.846
lfoot -11.1837 4.02886
ltoes -3.9069
529
root 0.699953 17.6657 2.98796 7.44077 -0.0238429 -1.39932
lowerback -0.727724 0.205237 -0.0677252
upperback 2.76936 0.225014 1.78509
thorax 3.24543 0.08471 1.88188
lowerneck -13.1745 -0.482404 -2.33158
upperneck 25.2564 -0.28531 0.666424
head 10.232 -0.273175 0.596867
rclavicle 3.8763e-015 1.31198e-014
rhumerus -17.8215 -13.0289 -84.4014
rradius 26.0193
rwrist 31.2059
rhand -21.4529 -26.3226
rfingers 7.12502
rthumb 4.93704 -56.2451
lclavicle 3.8763e-015 1.31198e-014
lhumerus -19.5904 0.830465 87.7479
lradius 18.7691
lwrist 3.82815
lhand -26.4976 -5.84481
lfingers 7.12502
lthumb 0.0651358 24.1349
rfemur -15.7642 -2.0545 20.5028
rtibia 24.6897
rfoot -14.6154 -2.0319
rtoes 12.9925
lfemur -15.3067 5.56822 -18.1921
ltibia 21.8096
lfoot -11.2126 4.00384
ltoes -3.88184
530
root 0.699128 17.6659 2.99879 7.41452 0.0165433 -1.3944
lowerback -0.785557 0.201689 -0.0646633
upperback 2.75024 0.219961 1.78515
thorax 3.25851 0.0822976 1.88028
lowerneck -13.1841 -0.488307 -2.33787
upperneck 25.0872 -0.298168 0.689957
head 10.1727 -0.275873 0.604052
rclavicle -6.85807e-015 -2.0276e-014
rhumerus -17.9027 -13.1501 -84.3429
rradius 25.9612
rwrist 31.2882
rhand -21.4582 -26.3035
rfingers 7.12502
rthumb 4.9319 -56.2261
lclavicle -6.85807e-015 -2.0276e-014
lhumerus -19.5978 0.815691 87.8096
lradius 18.7408
lwrist 3.72025
lhand -26.4874 -5.82795
lfingers 7.12502
lthumb 0.0749536 24.1518
rfemur -15.6711 -2.08307 20.5
rtibia 24.6546
rfoot -14.637 -2.04522
rtoes 12.9634
lfemur -15.2177 5.55555 -18.1863
ltibia 21.7642
lfoot -11.2402 3.97553
ltoes -3.86249
531
root 0.698299 17.6661 3.00992 7.38958 0.0560405 -1.38599
lowerback -0.84711 0.196029 -0.0653108
upperback 2.72884 0.212219 1.78372
thorax 3.27142 0.0784798 1.87911
lowerneck -13.1861 -0.492244 -2.33843
upperneck 24.9137 -0.308092 0.706951
head 10.1104 -0.277456 0.608296
rclavicle -2.68359e-015 -5.1684e-015
rhumerus -17.9963 -13.2572 -84.2825
rradius 25.8985
rwrist 31.3823
rhand -21.4527 -26.297
rfingers 7.12502
rthumb 4.93723 -56.2195
lclavicle -2.68359e-015 -5.1684e-015
lhumerus -19.619 0.822654 87.8646
lradius 18.7196
lwrist 3.60892
lhand -26.481 -5.82005
lfingers 7.12502
lthumb 0.0812034 24.1597
rfemur -15.579 -2.11174 20.4934
rtibia 24.6218
rfoot -14.6621 -2.05878
rtoes 12.9343
lfemur -15.1238 5.54478 -18.1846
ltibia 21.7089
lfoot -11.2641 3.94616
ltoes -3.85106
532
root 0.697536 17.6664 3.02135 7.36499 0.0951855 -1.37066
lowerback -0.912026 0.18781 -0.0733155
upperback 2.70608 0.201296 1.78044
thorax 3.28491 0.0729127 1.88006
lowerneck -13.1753 -0.495789 -2.33671
upperneck 24.7301 -0.317284 0.719942
head 10.0423 -0.278944 0.610798
rclavicle 2.28602e-015 5.96354e-015
rhumerus -18.1024 -13.351 -84.2192
rradius 25.834
rwrist 31.4855
rhand -21.4319 -26.3054
rfingers 7.12502
rthumb 4.95735 -56.2274
lclavicle 2.28602e-015 5.96354e-015
lhumerus -19.6491 0.838443 87.9166
lradius 18.697
lwrist 3.51048
lhand -26.4785 -5.81656
lfingers 7.12502
lthumb 0.0835727 24.1632
rfemur -15.4862 -2.14397 20.4789
rtibia 24.5907
rfoot -14.6911 -2.07078
rtoes 12.9088
lfemur -15.0238 5.53487 -18.191
ltibia 21.6439
lfoot -11.286 3.91497
ltoes -3.85004
533
root 0.69691 17.6667 3.03306 7.34045 0.134946 -1.35043
lowerback -0.979665 0.176873 -0.085655
upperback 2.68381 0.186887 1.77553
thorax 3.30056 0.0655039 1.88164
lowerneck -13.1622 -0.498049 -2.32873
upperneck 24.5416 -0.324386 0.725891
head 9.97207 -0.279706 0.610005
rclavicle 3.77691e-015 1.03368e-014
rhumerus -18.2157 -13.4401 -84.1539
rradius 25.7655
rwrist 31.5989
rhand -21.4149 -26.3133
rfingers 7.12502
rthumb 4.97372 -56.2349
lclavicle 3.77691e-015 1.03368e-014
lhumerus -19.6809 0.87337 87.9625
lradius 18.6723
lwrist 3.41687
lhand -26.4734 -5.81939
lfingers 7.12502
lthumb 0.088503 24.1603
rfemur -15.3919 -2.18257 20.4586
rtibia 24.5604
rfoot -14.7255 -2.07823
rtoes 12.8899
lfemur -14.918 5.52523 -18.2034
ltibia 21.5714
lfoot -11.3076 3.88226
ltoes -3.85048
